<?xml version="1.0" encoding="UTF-8" standalone="no"?>
<!-- Created with Inkscape (http://www.inkscape.org/) -->

<svg
   width="25.0mm"
   height="25.0mm"
   viewBox="0 0 25.0 25.0"
   version="1.1"
   id="svg5"
   sodipodi:docname="power_sym.svg"
   inkscape:version="1.1.2 (0a00cf5, 2022-02-04)"
   xmlns:inkscape="http://www.inkscape.org/namespaces/inkscape"
   xmlns:sodipodi="http://sodipodi.sourceforge.net/DTD/sodipodi-0.dtd"
   xmlns="http://www.w3.org/2000/svg"
   xmlns:svg="http://www.w3.org/2000/svg">
  <sodipodi:namedview
     id="namedview7"
     pagecolor="#505050"
     bordercolor="#eeeeee"
     borderopacity="1"
     inkscape:pageshadow="0"
     inkscape:pageopacity="0"
     inkscape:pagecheckerboard="0"
     inkscape:document-units="mm"
     showgrid="false"
     inkscape:zoom="8.7988368"
     inkscape:cx="42.335141"
     inkscape:cy="36.084315"
     inkscape:window-width="3375"
     inkscape:window-height="1416"
     inkscape:window-x="65"
     inkscape:window-y="24"
     inkscape:window-maximized="1"
     inkscape:current-layer="g19"
     showguides="true"
     inkscape:guide-bbox="true"
     inkscape:snap-global="true"
     inkscape:snap-center="true" />
  <defs
     id="defs2">
    <inkscape:path-effect
       effect="fillet_chamfer"
       id="path-effect1980"
       is_visible="true"
       lpeversion="1"
       satellites_param="F,0,1,1,0,0.69338439,0,1 @ F,0,0,1,0,0.69338439,0,1 @ F,0,0,1,0,0,0,1 @ F,0,0,1,0,0,0,1 @ F,0,0,1,0,0,0,1 @ F,0,1,1,0,0.69338439,0,1 @ F,0,1,1,0,0.69338439,0,1 @ F,0,0,1,0,0,0,1 @ F,0,0,1,0,0,0,1 @ F,0,0,1,0,0,0,1"
       unit="px"
       method="auto"
       mode="F"
       radius="0"
       chamfer_steps="1"
       flexible="false"
       use_knot_distance="true"
       apply_no_radius="true"
       apply_with_radius="true"
       only_selected="false"
       hide_knots="false" />
  </defs>
  <g
     inkscape:label="[fixed] BG"
     inkscape:groupmode="layer"
     sodipodi:insensitive="true"
     id="g17"
     style="display:inline">
    <rect
       x="0"
       y="0"
       width="25"
       height="25"
       style="fill:#ffffff;fill-opacity:1;stroke:none"
       id="rect15" />
  </g>
  <g
     inkscape:label="F.Cu"
     inkscape:groupmode="layer"
     id="g19"
     style="display:inline">
    <path
       id="path2943"
       style="display:inline;stroke-width:0.264583"
       d="m 3.725342,-1.18e-5 c -2.063895,0 -3.725354,1.6614589 -3.725354,3.7253539 V 21.274658 c 0,2.063895 1.661459,3.725354 3.725354,3.725354 h 17.549316 c 2.063895,0 3.725354,-1.661459 3.725354,-3.725354 V 3.7253421 c 0,-2.063895 -1.661459,-3.7253539 -3.725354,-3.7253539 z m 8.396387,1.9740397 h 0.756542 c 0.447891,0 0.80822,0.3603284 0.80822,0.8082194 v 7.8579177 c 0,0.447891 -0.360329,0.808736 -0.80822,0.808736 h -0.756542 c -0.447891,0 -0.80822,-0.360845 -0.80822,-0.808736 V 2.7822473 c 0,-0.447891 0.360329,-0.8082194 0.80822,-0.8082194 z m 4.541324,2.5471314 c 0.0746,0.00114 0.155936,0.022926 0.240813,0.067179 3.127679,1.6307154 5.116953,4.8756077 5.117,8.4408277 3.8e-5,5.258245 -4.262621,9.520904 -9.520866,9.520867 -5.258245,3.8e-5 -9.520903,-4.262622 -9.520866,-9.520867 4.24e-4,-3.564857 1.989629,-6.8092532 5.117,-8.4397942 0.33949,-0.1770023 0.625802,0.01238 0.625802,0.3953248 v 1.2603882 c 0,0.3829454 -0.26618,0.8545451 -0.570508,1.0867554 -1.765837,1.3473808 -2.818857,3.4500248 -2.818949,5.6973258 -6.5e-5,3.95854 3.208981,7.167588 7.167521,7.167522 3.95854,6.6e-5 7.167586,-3.208982 7.167521,-7.167522 C 19.667429,10.781862 18.614412,8.679221 16.848572,7.3318402 16.544248,7.0996334 16.278064,6.6280305 16.278064,6.2450851 V 4.9836634 c 0,-0.2872094 0.161195,-0.4659418 0.384989,-0.4625041 z" />
  </g>
  <g
     inkscape:label="F.Mask-auto"
     inkscape:groupmode="layer"
     id="g21"
     style="display:inline">
    <path
       id="path3555"
       style="display:inline;fill:#000000;stroke-width:0.264583"
       d="m 3.725342,-1.18e-5 c -2.063895,0 -3.725354,1.6614589 -3.725354,3.7253539 V 21.274658 c 0,2.063895 1.661459,3.725354 3.725354,3.725354 h 17.549316 c 2.063895,0 3.725354,-1.661459 3.725354,-3.725354 V 3.7253421 c 0,-2.063895 -1.661459,-3.7253539 -3.725354,-3.7253539 z m 8.396387,1.9740397 h 0.756542 c 0.447891,0 0.80822,0.3603284 0.80822,0.8082194 v 7.8579177 c 0,0.447891 -0.360329,0.808736 -0.80822,0.808736 h -0.756542 c -0.447891,0 -0.80822,-0.360845 -0.80822,-0.808736 V 2.7822473 c 0,-0.447891 0.360329,-0.8082194 0.80822,-0.8082194 z m 4.541324,2.5471314 c 0.0746,0.00114 0.155936,0.022926 0.240813,0.067179 3.127679,1.6307154 5.116953,4.8756077 5.117,8.4408277 3.8e-5,5.258245 -4.262621,9.520904 -9.520866,9.520867 -5.258245,3.8e-5 -9.520903,-4.262622 -9.520866,-9.520867 4.24e-4,-3.564857 1.989629,-6.8092532 5.117,-8.4397942 0.33949,-0.1770023 0.625802,0.01238 0.625802,0.3953248 v 1.2603882 c 0,0.3829454 -0.26618,0.8545451 -0.570508,1.0867554 -1.765837,1.3473808 -2.818857,3.4500248 -2.818949,5.6973258 -6.5e-5,3.95854 3.208981,7.167588 7.167521,7.167522 3.95854,6.6e-5 7.167586,-3.208982 7.167521,-7.167522 C 19.667429,10.781862 18.614412,8.679221 16.848572,7.3318402 16.544248,7.0996334 16.278064,6.6280305 16.278064,6.2450851 V 4.9836634 c 0,-0.2872094 0.161195,-0.4659418 0.384989,-0.4625041 z" />
  </g>
  <g
     inkscape:label="F.SilkS"
     inkscape:groupmode="layer"
     id="g23"
     style="display:inline" />
</svg>
